# xmcd
#
# Track frame offsets:
#	150
#	17227
#	32905
#	45407
#	58135
#	69932
#	87382
#	102512
#	121407
#	135862
#	150227
#	168670
#	181557
#	195184
#	212322
#	225540
#	241577
#	255570
#	272427
#	296635
#
# Disc length: 4141 seconds
# Revision: 0
# Processed by: cddbd v1.5.2PL0 Copyright (c) Steve Scherf et al.
# Submitted via: dBpowerAMP V12.0
#
DISCID=fa102b14
DTITLE=Colleen Peterson - What Goes Around Comes Around
DYEAR=1995
DGENRE=Canadian
TTITLE0=Crazy
TTITLE1=Mr Conductor
TTITLE2=Bucket To The South
TTITLE3=Closest Thing To You
TTITLE4=Married Ladies
TTITLE5=Code Of The West
TTITLE6=I Go To Pieces
TTITLE7=What Goes Around Comes Around
TTITLE8=Beginning To Feel Like Home
TTITLE9=Delaney
TTITLE10=Dim Lights, Thick Smoke and Loud Loud Noise
TTITLE11=Startin' Out Clean
TTITLE12=Goin' Goin' Gone
TTITLE13=Old Fashion Fool
TTITLE14=What's New Tomorrow
TTITLE15=You Were The One
TTITLE16=Cupid
TTITLE17=Another Day Begins
TTITLE18=The Ghost Of Maggie's Sailor
TTITLE19=Am I Blue
EXTD=
EXTT0=
EXTT1=
EXTT2=
EXTT3=
EXTT4=
EXTT5=
EXTT6=
EXTT7=
EXTT8=
EXTT9=
EXTT10=
EXTT11=
EXTT12=
EXTT13=
EXTT14=
EXTT15=
EXTT16=
EXTT17=
EXTT18=
EXTT19=
PLAYORDER=
